<svg width="90" height="90" viewBox="0 0 90 90" fill="none" xmlns="http://www.w3.org/2000/svg">
<g filter="url(#filter0_d)">
<rect x="15" y="10" width="60" height="60" rx="30" fill="url(#paint0_linear)"/>
</g>
<path fill-rule="evenodd" clip-rule="evenodd" d="M44.4001 32C43.8478 32 43.4001 32.4477 43.4001 33V38.4H38.0001C37.4478 38.4 37.0001 38.8477 37.0001 39.4V40.6C37.0001 41.1523 37.4478 41.6 38.0001 41.6H43.4001V47C43.4001 47.5523 43.8478 48 44.4001 48H45.6001C46.1524 48 46.6001 47.5523 46.6001 47V41.6H52.0001C52.5524 41.6 53.0001 41.1523 53.0001 40.6V39.4C53.0001 38.8477 52.5524 38.4 52.0001 38.4H46.6001V33C46.6001 32.4477 46.1524 32 45.6001 32H44.4001Z" fill="white"/>
<defs>
<filter id="filter0_d" x="0" y="0" width="90" height="90" filterUnits="userSpaceOnUse" color-interpolation-filters="sRGB">
<feFlood flood-opacity="0" result="BackgroundImageFix"/>
<feColorMatrix in="SourceAlpha" type="matrix" values="0 0 0 0 0 0 0 0 0 0 0 0 0 0 0 0 0 0 127 0"/>
<feOffset dy="5"/>
<feGaussianBlur stdDeviation="7.5"/>
<feColorMatrix type="matrix" values="0 0 0 0 0.113725 0 0 0 0 0.294118 0 0 0 0 0.662745 0 0 0 0.3 0"/>
<feBlend mode="normal" in2="BackgroundImageFix" result="effect1_dropShadow"/>
<feBlend mode="normal" in="SourceGraphic" in2="effect1_dropShadow" result="shape"/>
</filter>
<linearGradient id="paint0_linear" x1="45" y1="10" x2="45" y2="70" gradientUnits="userSpaceOnUse">
<stop stop-color="#1D4BA9"/>
<stop offset="1" stop-color="#00236A"/>
</linearGradient>
</defs>
</svg>
