<svg width="30" height="39" viewBox="0 0 30 39" fill="none" xmlns="http://www.w3.org/2000/svg">
<path fill-rule="evenodd" clip-rule="evenodd" d="M2.31343 0H27.6866C28.2998 0.000707269 28.8877 0.24341 29.3214 0.674882C29.7551 1.10635 29.9991 1.69138 30 2.30165V35.7219C29.9993 36.3322 29.7553 36.9174 29.3216 37.349C28.8879 37.7806 28.2999 38.0234 27.6866 38.0241H2.31343C1.70009 38.0234 1.11207 37.7806 0.678374 37.349C0.244675 36.9174 0.000711031 36.3322 0 35.7219V2.30224C0.000711031 1.69187 0.244675 1.10669 0.678374 0.675092C1.11207 0.243492 1.70009 0.000707591 2.31343 0ZM28.5833 36.6137C28.8211 36.377 28.9549 36.056 28.9552 35.7213V2.30224C28.9549 1.9675 28.8211 1.64655 28.5833 1.40985C28.3454 1.17315 28.0229 1.04004 27.6866 1.03972H2.31343C1.97716 1.04004 1.65475 1.17307 1.41692 1.40964C1.17908 1.64621 1.04525 1.96701 1.04478 2.30165V35.7213C1.04509 36.056 1.17886 36.377 1.41671 36.6137C1.65456 36.8504 1.97706 36.9835 2.31343 36.9838H27.6866C28.0229 36.9835 28.3454 36.8504 28.5833 36.6137ZM3.50787 2.97063H26.4929C26.5616 2.9706 26.6295 2.98401 26.6929 3.01013C26.7563 3.03624 26.8139 3.07453 26.8624 3.12281C26.9109 3.17109 26.9494 3.22842 26.9756 3.29151C27.0019 3.3546 27.0154 3.42221 27.0153 3.49049V10.0259C27.0154 10.0942 27.0019 10.1618 26.9756 10.2249C26.9494 10.288 26.9109 10.3453 26.8624 10.3936C26.8139 10.4419 26.7563 10.4801 26.6929 10.5063C26.6295 10.5324 26.5616 10.5458 26.4929 10.5458H3.50787C3.43926 10.5458 3.37132 10.5324 3.30792 10.5063C3.24452 10.4801 3.18692 10.4419 3.1384 10.3936C3.08989 10.3453 3.05141 10.288 3.02517 10.2249C2.99893 10.1618 2.98545 10.0942 2.98549 10.0259V3.49049C2.98545 3.42221 2.99893 3.3546 3.02517 3.29151C3.05141 3.22842 3.08989 3.17109 3.1384 3.12281C3.18692 3.07453 3.24452 3.03624 3.30792 3.01013C3.37132 2.98401 3.43926 2.9706 3.50787 2.97063ZM4.03026 9.50603H25.9705V4.01036H4.03026V9.50603ZM17.8358 28.9706H12.1642C12.0256 28.9706 11.8928 29.0254 11.7948 29.1229C11.6968 29.2204 11.6418 29.3526 11.6418 29.4905V34.5326C11.6416 34.601 11.655 34.6687 11.6811 34.7319C11.7073 34.7952 11.7458 34.8526 11.7943 34.901C11.8428 34.9494 11.9005 34.9878 11.9639 35.014C12.0274 35.0402 12.0955 35.0537 12.1642 35.0536H17.8358C17.9044 35.0537 17.9724 35.0403 18.0358 35.0141C18.0992 34.988 18.1568 34.9497 18.2053 34.9015C18.2538 34.8532 18.2923 34.7959 18.3185 34.7328C18.3448 34.6697 18.3582 34.6021 18.3582 34.5338V29.4905C18.3582 29.3526 18.3032 29.2204 18.2052 29.1229C18.1072 29.0254 17.9744 28.9706 17.8358 28.9706ZM17.3131 34.0139H12.6863V30.0104H17.3131V34.0139ZM3.50788 28.9706H9.18816C9.32671 28.9706 9.45958 29.0254 9.55755 29.1229C9.65551 29.2204 9.71055 29.3526 9.71055 29.4905V34.5338C9.71059 34.6021 9.6971 34.6697 9.67087 34.7328C9.64463 34.7959 9.60615 34.8532 9.55763 34.9015C9.50912 34.9497 9.45152 34.988 9.38812 35.0141C9.32472 35.0403 9.25677 35.0537 9.18816 35.0536H3.50788C3.43916 35.0537 3.37112 35.0402 3.30764 35.014C3.24417 34.9878 3.18651 34.9494 3.13798 34.901C3.08945 34.8526 3.051 34.7952 3.02483 34.7319C2.99866 34.6687 2.98529 34.601 2.98549 34.5326V29.4905C2.98549 29.3526 3.04053 29.2204 3.13849 29.1229C3.23646 29.0254 3.36933 28.9706 3.50788 28.9706ZM4.03026 34.0139H8.66578V30.0104H4.03026V34.0139ZM17.8358 20.7251H12.1642C12.0956 20.7251 12.0276 20.7385 11.9642 20.7646C11.9008 20.7907 11.8432 20.829 11.7947 20.8773C11.7462 20.9256 11.7077 20.9829 11.6815 21.046C11.6552 21.1091 11.6418 21.1767 11.6418 21.245V26.2867C11.6418 26.355 11.6552 26.4226 11.6815 26.4857C11.7077 26.5488 11.7462 26.6061 11.7947 26.6544C11.8432 26.7027 11.9008 26.741 11.9642 26.7671C12.0276 26.7932 12.0956 26.8066 12.1642 26.8066H17.8358C17.9044 26.8066 17.9724 26.7932 18.0358 26.7671C18.0992 26.741 18.1568 26.7027 18.2053 26.6544C18.2538 26.6061 18.2923 26.5488 18.3185 26.4857C18.3448 26.4226 18.3582 26.355 18.3582 26.2867V21.245C18.3582 21.1767 18.3448 21.1091 18.3185 21.046C18.2923 20.9829 18.2538 20.9256 18.2053 20.8773C18.1568 20.829 18.0992 20.7907 18.0358 20.7646C17.9724 20.7385 17.9044 20.7251 17.8358 20.7251ZM17.3134 25.7669H12.6866V21.7648H17.3134V25.7669ZM3.50787 20.7251H9.18816C9.25677 20.7251 9.32472 20.7385 9.38812 20.7646C9.45152 20.7907 9.50912 20.829 9.55763 20.8773C9.60615 20.9256 9.64463 20.9829 9.67087 21.046C9.6971 21.1091 9.71059 21.1767 9.71055 21.245V26.2867C9.71059 26.355 9.6971 26.4226 9.67087 26.4857C9.64463 26.5488 9.60615 26.6061 9.55763 26.6544C9.50912 26.7027 9.45152 26.741 9.38812 26.7671C9.32472 26.7932 9.25677 26.8066 9.18816 26.8066H3.50787C3.43926 26.8066 3.37132 26.7932 3.30792 26.7671C3.24452 26.741 3.18692 26.7027 3.1384 26.6544C3.08989 26.6061 3.05141 26.5488 3.02517 26.4857C2.99893 26.4226 2.98545 26.355 2.98549 26.2867V21.245C2.98545 21.1767 2.99893 21.1091 3.02517 21.046C3.05141 20.9829 3.08989 20.9256 3.1384 20.8773C3.18692 20.829 3.24452 20.7907 3.30792 20.7646C3.37132 20.7385 3.43926 20.7251 3.50787 20.7251ZM4.03026 25.7669H8.66578V21.7648H4.03026V25.7669ZM26.4927 20.7251H20.8124C20.7438 20.7251 20.6759 20.7385 20.6125 20.7646C20.5491 20.7907 20.4915 20.829 20.443 20.8773C20.3944 20.9256 20.356 20.9829 20.3297 21.046C20.3035 21.1091 20.29 21.1767 20.29 21.245V34.5325C20.29 34.6008 20.3035 34.6684 20.3297 34.7315C20.356 34.7946 20.3944 34.8519 20.443 34.9002C20.4915 34.9485 20.5491 34.9868 20.6125 35.0129C20.6759 35.039 20.7438 35.0524 20.8124 35.0524H26.4927C26.5613 35.0524 26.6293 35.039 26.6927 35.0129C26.7561 34.9868 26.8137 34.9485 26.8622 34.9002C26.9107 34.8519 26.9492 34.7946 26.9754 34.7315C27.0016 34.6684 27.0151 34.6008 27.0151 34.5325V21.245C27.0151 21.1767 27.0016 21.1091 26.9754 21.046C26.9492 20.9829 26.9107 20.9256 26.8622 20.8773C26.8137 20.829 26.7561 20.7907 26.6927 20.7646C26.6293 20.7385 26.5613 20.7251 26.4927 20.7251ZM25.9703 34.0127H21.3348V21.7648H25.9703V34.0127ZM12.1642 12.4791H17.8358C17.9044 12.4791 17.9724 12.4925 18.0358 12.5186C18.0992 12.5447 18.1568 12.583 18.2053 12.6313C18.2538 12.6796 18.2923 12.7369 18.3185 12.8C18.3448 12.8631 18.3582 12.9307 18.3582 12.999V18.0407C18.3582 18.109 18.3448 18.1766 18.3185 18.2397C18.2923 18.3028 18.2538 18.3601 18.2053 18.4084C18.1568 18.4567 18.0992 18.495 18.0358 18.5211C17.9724 18.5472 17.9044 18.5606 17.8358 18.5606H12.1642C12.0956 18.5606 12.0276 18.5472 11.9642 18.5211C11.9008 18.495 11.8432 18.4567 11.7947 18.4084C11.7462 18.3601 11.7077 18.3028 11.6815 18.2397C11.6552 18.1766 11.6418 18.109 11.6418 18.0407V12.999C11.6418 12.9307 11.6552 12.8631 11.6815 12.8C11.7077 12.7369 11.7462 12.6796 11.7947 12.6313C11.8432 12.583 11.9008 12.5447 11.9642 12.5186C12.0276 12.4925 12.0956 12.4791 12.1642 12.4791ZM12.6863 17.5209H17.3131V13.5189H12.6863V17.5209ZM9.18816 12.4791H3.50787C3.43926 12.4791 3.37132 12.4925 3.30792 12.5186C3.24452 12.5447 3.18692 12.583 3.1384 12.6313C3.08989 12.6796 3.05141 12.7369 3.02517 12.8C2.99893 12.8631 2.98545 12.9307 2.98549 12.999V18.0407C2.98545 18.109 2.99893 18.1766 3.02517 18.2397C3.05141 18.3028 3.08989 18.3601 3.1384 18.4084C3.18692 18.4567 3.24452 18.495 3.30792 18.5211C3.37132 18.5472 3.43926 18.5606 3.50787 18.5606H9.18816C9.25677 18.5606 9.32472 18.5472 9.38812 18.5211C9.45152 18.495 9.50912 18.4567 9.55763 18.4084C9.60615 18.3601 9.64463 18.3028 9.67087 18.2397C9.6971 18.1766 9.71059 18.109 9.71055 18.0407V12.999C9.71059 12.9307 9.6971 12.8631 9.67087 12.8C9.64463 12.7369 9.60615 12.6796 9.55763 12.6313C9.50912 12.583 9.45152 12.5447 9.38812 12.5186C9.32472 12.4925 9.25677 12.4791 9.18816 12.4791ZM8.66578 17.5209H4.03026V13.5189H8.66578V17.5209ZM20.8124 12.4791H26.4927C26.5613 12.4791 26.6293 12.4925 26.6927 12.5186C26.7561 12.5447 26.8137 12.583 26.8622 12.6313C26.9107 12.6796 26.9492 12.7369 26.9754 12.8C27.0016 12.8631 27.0151 12.9307 27.0151 12.999V18.0407C27.0151 18.109 27.0016 18.1766 26.9754 18.2397C26.9492 18.3028 26.9107 18.3601 26.8622 18.4084C26.8137 18.4567 26.7561 18.495 26.6927 18.5211C26.6293 18.5472 26.5613 18.5606 26.4927 18.5606H20.8124C20.7438 18.5606 20.6759 18.5472 20.6125 18.5211C20.5491 18.495 20.4915 18.4567 20.443 18.4084C20.3944 18.3601 20.356 18.3028 20.3297 18.2397C20.3035 18.1766 20.29 18.109 20.29 18.0407V12.999C20.29 12.9307 20.3035 12.8631 20.3297 12.8C20.356 12.7369 20.3944 12.6796 20.443 12.6313C20.4915 12.583 20.5491 12.5447 20.6125 12.5186C20.6759 12.4925 20.7438 12.4791 20.8124 12.4791ZM21.3348 17.5209H25.9703V13.5189H21.3348V17.5209Z" fill="url(#paint0_linear)"/>
<defs>
<linearGradient id="paint0_linear" x1="23.6526" y1="12.4791" x2="23.6526" y2="18.5606" gradientUnits="userSpaceOnUse">
<stop stop-color="#1D4BA9"/>
<stop offset="1" stop-color="#00236A"/>
</linearGradient>
</defs>
</svg>
