<svg width="20" height="25" viewBox="0 0 20 25" fill="none" xmlns="http://www.w3.org/2000/svg">
<path d="M18.8284 6.07383L12.9691 0.2146C12.8324 0.0777832 12.6457 0 12.4512 0H2.19727C0.985693 0 0 0.985693 0 2.19727V22.8027C0 24.0143 0.985693 25 2.19727 25H16.8457C18.0573 25 19.043 24.0143 19.043 22.8027V6.5918C19.043 6.39209 18.9591 6.20454 18.8284 6.07383ZM13.1836 2.50063L16.5423 5.85938H13.916C13.5122 5.85938 13.1836 5.53081 13.1836 5.12695V2.50063ZM16.8457 23.5352H2.19727C1.79341 23.5352 1.46484 23.2066 1.46484 22.8027V2.19727C1.46484 1.79341 1.79341 1.46484 2.19727 1.46484H11.7188V5.12695C11.7188 6.33853 12.7044 7.32422 13.916 7.32422H17.5781V22.8027C17.5781 23.2066 17.2496 23.5352 16.8457 23.5352Z" fill="url(#paint0_linear)"/>
<path d="M13.916 10.3516H5.12695C4.72246 10.3516 4.39453 10.6795 4.39453 11.084C4.39453 11.4885 4.72246 11.8164 5.12695 11.8164H13.916C14.3205 11.8164 14.6484 11.4885 14.6484 11.084C14.6484 10.6795 14.3205 10.3516 13.916 10.3516Z" fill="url(#paint1_linear)"/>
<path d="M13.916 13.2812H5.12695C4.72246 13.2812 4.39453 13.6092 4.39453 14.0137C4.39453 14.4182 4.72246 14.7461 5.12695 14.7461H13.916C14.3205 14.7461 14.6484 14.4182 14.6484 14.0137C14.6484 13.6092 14.3205 13.2812 13.916 13.2812Z" fill="url(#paint2_linear)"/>
<path d="M13.916 16.2109H5.12695C4.72246 16.2109 4.39453 16.5389 4.39453 16.9434C4.39453 17.3479 4.72246 17.6758 5.12695 17.6758H13.916C14.3205 17.6758 14.6484 17.3479 14.6484 16.9434C14.6484 16.5389 14.3205 16.2109 13.916 16.2109Z" fill="url(#paint3_linear)"/>
<path d="M10.9863 19.1406H5.12695C4.72246 19.1406 4.39453 19.4686 4.39453 19.873C4.39453 20.2775 4.72246 20.6055 5.12695 20.6055H10.9863C11.3908 20.6055 11.7188 20.2775 11.7188 19.873C11.7188 19.4686 11.3908 19.1406 10.9863 19.1406Z" fill="url(#paint4_linear)"/>
<defs>
<linearGradient id="paint0_linear" x1="9.52148" y1="0" x2="9.52148" y2="25" gradientUnits="userSpaceOnUse">
<stop stop-color="#1D4BA9"/>
<stop offset="1" stop-color="#00236A"/>
</linearGradient>
<linearGradient id="paint1_linear" x1="9.52148" y1="10.3516" x2="9.52148" y2="11.8164" gradientUnits="userSpaceOnUse">
<stop stop-color="#1D4BA9"/>
<stop offset="1" stop-color="#00236A"/>
</linearGradient>
<linearGradient id="paint2_linear" x1="9.52148" y1="13.2812" x2="9.52148" y2="14.7461" gradientUnits="userSpaceOnUse">
<stop stop-color="#1D4BA9"/>
<stop offset="1" stop-color="#00236A"/>
</linearGradient>
<linearGradient id="paint3_linear" x1="9.52148" y1="16.2109" x2="9.52148" y2="17.6758" gradientUnits="userSpaceOnUse">
<stop stop-color="#1D4BA9"/>
<stop offset="1" stop-color="#00236A"/>
</linearGradient>
<linearGradient id="paint4_linear" x1="8.05664" y1="19.1406" x2="8.05664" y2="20.6055" gradientUnits="userSpaceOnUse">
<stop stop-color="#1D4BA9"/>
<stop offset="1" stop-color="#00236A"/>
</linearGradient>
</defs>
</svg>
