<svg width="12" height="15" viewBox="0 0 12 15" fill="none" xmlns="http://www.w3.org/2000/svg">
<path d="M5.65235 0C2.53546 0 0 2.52349 0 5.625C0 9.77479 5.21506 14.707 5.43709 14.9152C5.4978 14.9716 5.57507 15 5.65235 15C5.72963 15 5.80691 14.9716 5.86764 14.9152C6.08964 14.707 11.3047 9.77479 11.3047 5.625C11.3047 2.52349 8.76924 0 5.65235 0ZM5.65235 8.75001C3.92094 8.75001 2.51215 7.34804 2.51215 5.625C2.51215 3.90196 3.92097 2.49999 5.65235 2.49999C7.38374 2.49999 8.79256 3.90199 8.79256 5.625C8.79256 7.34801 7.38377 8.75001 5.65235 8.75001Z" fill="#F8F8FD"/>
</svg>
