<svg width="16" height="15" viewBox="0 0 16 15" fill="none" xmlns="http://www.w3.org/2000/svg">
<path d="M14.697 11.8643L12.3752 9.54225C11.9127 9.08166 11.1469 9.09565 10.6683 9.57439L9.49863 10.7438C9.42473 10.7031 9.34824 10.6606 9.26781 10.6154C8.52915 10.2062 7.51817 9.64518 6.45431 8.58055C5.38731 7.51367 4.82582 6.50113 4.41528 5.76199C4.37196 5.68369 4.33045 5.60819 4.28946 5.53649L5.07451 4.75261L5.46047 4.36617C5.93977 3.88674 5.95299 3.12113 5.49161 2.6592L3.16985 0.336912C2.70848 -0.124374 1.9423 -0.11038 1.463 0.369047L0.808649 1.02716L0.82653 1.04491C0.607116 1.32488 0.423768 1.64778 0.287326 1.99599C0.161552 2.32744 0.0832453 2.64373 0.0474394 2.96067C-0.259135 5.50224 0.902288 7.82504 4.05424 10.977C8.41119 15.3337 11.9223 15.0046 12.0738 14.9885C12.4037 14.9491 12.7199 14.8702 13.0412 14.7455C13.3864 14.6106 13.709 14.4275 13.9888 14.2086L14.0031 14.2213L14.666 13.5722C15.1443 13.0928 15.1581 12.3269 14.697 11.8643Z" fill="#F8F8FD"/>
</svg>
