<svg width="62" height="62" viewBox="0 0 62 62" fill="none" xmlns="http://www.w3.org/2000/svg">
<rect x="1" y="1" width="60" height="60" rx="10" fill="#F9F9F9" stroke="#EEEFEE"/>
<path d="M19.1323 35.5C19.1323 35.5 14.1322 36 15.1322 39C16.1322 42 32.1322 43.5 32.1322 43.5M32.1322 43.5L29.6322 41M32.1322 43.5L29.6322 46" stroke="black" stroke-linecap="round" stroke-linejoin="round"/>
<path d="M35.6323 43C35.6323 43 46.1323 41.5 47.1323 39C48.1323 36.5 43.1323 35.5 43.1323 35.5" stroke="black" stroke-linecap="round" stroke-linejoin="round"/>
<path d="M22 20.5V30.8501C22 31.2453 22.2327 31.6034 22.5939 31.7639L31 35.5M22 20.5L30.5646 16.2177C30.8395 16.0803 31.1622 16.0768 31.4399 16.2084L40.5 20.5M22 20.5L31 24M31 35.5L39.8881 31.7577C40.2589 31.6015 40.5 31.2384 40.5 30.836V20.5M31 35.5V24M40.5 20.5L31 24" stroke="black" stroke-linecap="round" stroke-linejoin="round"/>
</svg>
